<?xml version="1.0" encoding="UTF-8" standalone="no"?>
<!-- Generator: Adobe Illustrator 16.0.0, SVG Export Plug-In . SVG Version: 6.00 Build 0)  -->

<svg
   xmlns:dc="http://purl.org/dc/elements/1.1/"
   xmlns:cc="http://creativecommons.org/ns#"
   xmlns:rdf="http://www.w3.org/1999/02/22-rdf-syntax-ns#"
   xmlns:svg="http://www.w3.org/2000/svg"
   xmlns="http://www.w3.org/2000/svg"
   xmlns:sodipodi="http://sodipodi.sourceforge.net/DTD/sodipodi-0.dtd"
   xmlns:inkscape="http://www.inkscape.org/namespaces/inkscape"
   version="1.1"
   id="Capa_1"
   x="0px"
   y="0px"
   width="97.761px"
   height="97.762px"
   viewBox="0 0 97.761 97.762"
   style="enable-background:new 0 0 97.761 97.762;"
   xml:space="preserve"
   sodipodi:docname="descending Blue.svg"
   inkscape:version="0.92.4 (5da689c313, 2019-01-14)"><metadata
   id="metadata47"><rdf:RDF><cc:Work
       rdf:about=""><dc:format>image/svg+xml</dc:format><dc:type
         rdf:resource="http://purl.org/dc/dcmitype/StillImage" /></cc:Work></rdf:RDF></metadata><defs
   id="defs45" /><sodipodi:namedview
   pagecolor="#ffffff"
   bordercolor="#666666"
   borderopacity="1"
   objecttolerance="10"
   gridtolerance="10"
   guidetolerance="10"
   inkscape:pageopacity="0"
   inkscape:pageshadow="2"
   inkscape:window-width="716"
   inkscape:window-height="480"
   id="namedview43"
   showgrid="false"
   inkscape:zoom="2.4140259"
   inkscape:cx="48.880501"
   inkscape:cy="48.881001"
   inkscape:window-x="0"
   inkscape:window-y="0"
   inkscape:window-maximized="0"
   inkscape:current-layer="Capa_1" />
<g
   id="g10"
   style="fill:#3978ff;fill-opacity:1">
	<g
   id="g8"
   style="fill:#3978ff;fill-opacity:1">
		<path
   d="M42.761,65.596H34.75V2c0-1.105-0.896-2-2-2H16.62c-1.104,0-2,0.895-2,2v63.596H6.609c-0.77,0-1.472,0.443-1.804,1.137    c-0.333,0.695-0.237,1.519,0.246,2.117l18.076,26.955c0.38,0.473,0.953,0.746,1.558,0.746s1.178-0.273,1.558-0.746L44.319,68.85    c0.482-0.6,0.578-1.422,0.246-2.117C44.233,66.039,43.531,65.596,42.761,65.596z"
   id="path2"
   style="fill:#3978ff;fill-opacity:1" />
		<path
   d="M93.04,95.098L79.71,57.324c-0.282-0.799-1.038-1.334-1.887-1.334h-3.86c-0.107,0-0.213,0.008-0.318,0.024    c-0.104-0.018-0.21-0.024-0.318-0.024h-3.76c-0.849,0-1.604,0.535-1.887,1.336L54.403,95.1c-0.215,0.611-0.12,1.289,0.255,1.818    s0.983,0.844,1.633,0.844h5.773c0.88,0,1.657-0.574,1.913-1.416l2.536-8.324h14.419l2.536,8.324    c0.256,0.842,1.033,1.416,1.913,1.416h5.771c0.649,0,1.258-0.314,1.633-0.844C93.16,96.387,93.255,95.709,93.04,95.098z     M68.905,80.066c2.398-7.77,4.021-13.166,4.82-16.041l4.928,16.041H68.905z"
   id="path4"
   style="fill:#3978ff;fill-opacity:1" />
		<path
   d="M87.297,34.053H69.479L88.407,6.848c0.233-0.336,0.358-0.734,0.358-1.143V2.289c0-1.104-0.896-2-2-2H60.694    c-1.104,0-2,0.896-2,2v3.844c0,1.105,0.896,2,2,2h16.782L58.522,35.309c-0.233,0.336-0.358,0.734-0.358,1.146v3.441    c0,1.105,0.896,2,2,2h27.135c1.104,0,2-0.895,2-2v-3.842C89.297,34.947,88.402,34.053,87.297,34.053z"
   id="path6"
   style="fill:#3978ff;fill-opacity:1" />
	</g>
</g>
<g
   id="g12">
</g>
<g
   id="g14">
</g>
<g
   id="g16">
</g>
<g
   id="g18">
</g>
<g
   id="g20">
</g>
<g
   id="g22">
</g>
<g
   id="g24">
</g>
<g
   id="g26">
</g>
<g
   id="g28">
</g>
<g
   id="g30">
</g>
<g
   id="g32">
</g>
<g
   id="g34">
</g>
<g
   id="g36">
</g>
<g
   id="g38">
</g>
<g
   id="g40">
</g>
</svg>